<svg width="100" height="100" viewBox="0 0 100 100" fill="none" xmlns="http://www.w3.org/2000/svg">
<path d="M24.375 71.2502C27.9167 68.5418 31.875 66.4064 36.25 64.8439C40.625 63.2814 45.2084 62.5002 50 62.5002C54.7917 62.5002 59.375 63.2814 63.75 64.8439C68.125 66.4064 72.0834 68.5418 75.625 71.2502C78.0556 68.4029 79.948 65.1738 81.3021 61.5627C82.6563 57.9516 83.3334 54.0974 83.3334 50.0002C83.3334 40.764 80.0868 32.8995 73.5938 26.4064C67.1007 19.9134 59.2361 16.6668 50 16.6668C40.7639 16.6668 32.8993 19.9134 26.4063 26.4064C19.9132 32.8995 16.6667 40.764 16.6667 50.0002C16.6667 54.0974 17.3438 57.9516 18.698 61.5627C20.0521 65.1738 21.9445 68.4029 24.375 71.2502ZM50 54.1668C45.9028 54.1668 42.448 52.7606 39.6355 49.9481C36.823 47.1356 35.4167 43.6807 35.4167 39.5835C35.4167 35.4863 36.823 32.0314 39.6355 29.2189C42.448 26.4064 45.9028 25.0002 50 25.0002C54.0973 25.0002 57.5521 26.4064 60.3646 29.2189C63.1771 32.0314 64.5834 35.4863 64.5834 39.5835C64.5834 43.6807 63.1771 47.1356 60.3646 49.9481C57.5521 52.7606 54.0973 54.1668 50 54.1668ZM50 91.6668C44.2361 91.6668 38.8195 90.5731 33.75 88.3856C28.6806 86.1981 24.2709 83.2293 20.5209 79.4793C16.7709 75.7293 13.8021 71.3196 11.6146 66.2502C9.42712 61.1807 8.33337 55.764 8.33337 50.0002C8.33337 44.2363 9.42712 38.8196 11.6146 33.7502C13.8021 28.6807 16.7709 24.271 20.5209 20.521C24.2709 16.771 28.6806 13.8022 33.75 11.6147C38.8195 9.42725 44.2361 8.3335 50 8.3335C55.7639 8.3335 61.1806 9.42725 66.25 11.6147C71.3195 13.8022 75.7292 16.771 79.4792 20.521C83.2292 24.271 86.198 28.6807 88.3855 33.7502C90.573 38.8196 91.6667 44.2363 91.6667 50.0002C91.6667 55.764 90.573 61.1807 88.3855 66.2502C86.198 71.3196 83.2292 75.7293 79.4792 79.4793C75.7292 83.2293 71.3195 86.1981 66.25 88.3856C61.1806 90.5731 55.7639 91.6668 50 91.6668Z" fill="#1D1B20"/>
</svg>
