<svg width="47" height="39" viewBox="0 0 47 39" fill="none" xmlns="http://www.w3.org/2000/svg">
<rect x="0.717041" y="0.833984" width="46.0488" height="37.556" rx="18.778" fill="#7B6BA7"/>
<path fill-rule="evenodd" clip-rule="evenodd" d="M30.649 15.8566C30.649 18.9678 27.5565 21.49 23.7417 21.49C19.9269 21.49 16.8344 18.9678 16.8344 15.8566C16.8344 12.7453 19.9269 10.2231 23.7417 10.2231C27.5565 10.2231 30.649 12.7453 30.649 15.8566ZM28.3466 15.8566C28.3466 17.9307 26.2849 19.6122 23.7417 19.6122C21.1985 19.6122 19.1368 17.9307 19.1368 15.8566C19.1368 13.7824 21.1985 12.1009 23.7417 12.1009C26.2849 12.1009 28.3466 13.7824 28.3466 15.8566Z" fill="white"/>
<path d="M23.7417 24.3067C16.2883 24.3067 9.93775 27.9012 7.51868 32.9371C8.10798 33.4143 8.72877 33.8658 9.37827 34.2891C11.1796 29.6656 16.8306 26.1845 23.7417 26.1845C30.6528 26.1845 36.3038 29.6656 38.1052 34.2891C38.7547 33.8658 39.3754 33.4144 39.9648 32.9371C37.5457 27.9012 31.1952 24.3067 23.7417 24.3067Z" fill="white"/>
</svg>
