<svg width="72" height="63" viewBox="0 0 72 63" fill="none" xmlns="http://www.w3.org/2000/svg">
<g clip-path="url(#clip0_820_3461)" filter="url(#filter0_d_820_3461)">
<g filter="url(#filter1_d_820_3461)">
<path d="M4.18652 51.681V44.5122C4.18652 43.0484 4.5584 41.6921 5.30215 40.4435C6.0459 39.1949 7.07402 38.2477 8.38652 37.6018C8.99902 37.3004 9.58965 37.0206 10.1584 36.7622C10.7709 36.5039 11.4053 36.2671 12.0615 36.0518V51.681H4.18652ZM14.6865 33.5977C12.499 33.5977 10.6396 32.8442 9.1084 31.3372C7.57715 29.8303 6.81152 28.0004 6.81152 25.8477C6.81152 23.6949 7.57715 21.865 9.1084 20.3581C10.6396 18.8511 12.499 18.0977 14.6865 18.0977C16.874 18.0977 18.7334 18.8511 20.2646 20.3581C21.7959 21.865 22.5615 23.6949 22.5615 25.8477C22.5615 28.0004 21.7959 29.8303 20.2646 31.3372C18.7334 32.8442 16.874 33.5977 14.6865 33.5977ZM14.6865 28.431C15.4303 28.431 16.0428 28.1942 16.524 27.7206C17.049 27.2039 17.3115 26.5796 17.3115 25.8477C17.3115 25.1157 17.049 24.5129 16.524 24.0393C16.0428 23.5227 15.4303 23.2643 14.6865 23.2643C13.9428 23.2643 13.3084 23.5227 12.7834 24.0393C12.3021 24.5129 12.0615 25.1157 12.0615 25.8477C12.0615 26.5796 12.3021 27.2039 12.7834 27.7206C13.3084 28.1942 13.9428 28.431 14.6865 28.431ZM14.6865 51.681V44.4477C14.6865 42.9838 15.0584 41.649 15.8021 40.4435C16.5896 39.1949 17.6178 38.2477 18.8865 37.6018C21.599 36.2671 24.3553 35.2768 27.1553 34.631C29.9553 33.9421 32.799 33.5977 35.6865 33.5977C38.574 33.5977 41.4178 33.9421 44.2178 34.631C47.0178 35.2768 49.774 36.2671 52.4865 37.6018C53.7553 38.2477 54.7615 39.1949 55.5053 40.4435C56.2928 41.649 56.6865 42.9838 56.6865 44.4477V51.681H14.6865ZM19.9365 46.5143H51.4365V44.4477C51.4365 43.974 51.3053 43.5435 51.0428 43.156C50.824 42.7685 50.5178 42.4671 50.124 42.2518C47.7615 41.0893 45.3772 40.2282 42.9709 39.6685C40.5646 39.0657 38.1365 38.7643 35.6865 38.7643C33.2365 38.7643 30.8084 39.0657 28.4021 39.6685C25.9959 40.2282 23.6115 41.0893 21.249 42.2518C20.8553 42.4671 20.5271 42.7685 20.2646 43.156C20.0459 43.5435 19.9365 43.974 19.9365 44.4477V46.5143ZM35.6865 31.0143C32.799 31.0143 30.3272 30.0025 28.2709 27.9789C26.2146 25.9553 25.1865 23.5227 25.1865 20.681C25.1865 17.8393 26.2146 15.4067 28.2709 13.3831C30.3272 11.3595 32.799 10.3477 35.6865 10.3477C38.574 10.3477 41.0459 11.3595 43.1021 13.3831C45.1584 15.4067 46.1865 17.8393 46.1865 20.681C46.1865 23.5227 45.1584 25.9553 43.1021 27.9789C41.0459 30.0025 38.574 31.0143 35.6865 31.0143ZM35.6865 25.8477C37.1303 25.8477 38.3553 25.3525 39.3615 24.3622C40.4115 23.3289 40.9365 22.1018 40.9365 20.681C40.9365 19.2602 40.4115 18.0546 39.3615 17.0643C38.3553 16.031 37.1303 15.5143 35.6865 15.5143C34.2428 15.5143 32.9959 16.031 31.9459 17.0643C30.9397 18.0546 30.4365 19.2602 30.4365 20.681C30.4365 22.1018 30.9397 23.3289 31.9459 24.3622C32.9959 25.3525 34.2428 25.8477 35.6865 25.8477ZM56.6865 33.5977C54.499 33.5977 52.6396 32.8442 51.1084 31.3372C49.5771 29.8303 48.8115 28.0004 48.8115 25.8477C48.8115 23.6949 49.5771 21.865 51.1084 20.3581C52.6396 18.8511 54.499 18.0977 56.6865 18.0977C58.874 18.0977 60.7334 18.8511 62.2647 20.3581C63.7959 21.865 64.5615 23.6949 64.5615 25.8477C64.5615 28.0004 63.7959 29.8303 62.2647 31.3372C60.7334 32.8442 58.874 33.5977 56.6865 33.5977ZM56.6865 28.431C57.4303 28.431 58.0428 28.1942 58.524 27.7206C59.049 27.2039 59.3115 26.5796 59.3115 25.8477C59.3115 25.1157 59.049 24.5129 58.524 24.0393C58.0428 23.5227 57.4303 23.2643 56.6865 23.2643C55.9428 23.2643 55.3084 23.5227 54.7834 24.0393C54.3022 24.5129 54.0615 25.1157 54.0615 25.8477C54.0615 26.5796 54.3022 27.2039 54.7834 27.7206C55.3084 28.1942 55.9428 28.431 56.6865 28.431ZM59.3115 51.681V36.0518C59.9678 36.2671 60.5803 36.5039 61.149 36.7622C61.7615 37.0206 62.374 37.3004 62.9865 37.6018C64.299 38.2477 65.3272 39.1949 66.0709 40.4435C66.8146 41.6921 67.1865 43.0484 67.1865 44.5122V51.681H59.3115Z" fill="#1D1B20"/>
</g>
</g>
<defs>
<filter id="filter0_d_820_3461" x="0.186523" y="0.0144043" width="71" height="70" filterUnits="userSpaceOnUse" color-interpolation-filters="sRGB">
<feFlood flood-opacity="0" result="BackgroundImageFix"/>
<feColorMatrix in="SourceAlpha" type="matrix" values="0 0 0 0 0 0 0 0 0 0 0 0 0 0 0 0 0 0 127 0" result="hardAlpha"/>
<feOffset dy="4"/>
<feGaussianBlur stdDeviation="2"/>
<feComposite in2="hardAlpha" operator="out"/>
<feColorMatrix type="matrix" values="0 0 0 0 0 0 0 0 0 0 0 0 0 0 0 0 0 0 0.25 0"/>
<feBlend mode="normal" in2="BackgroundImageFix" result="effect1_dropShadow_820_3461"/>
<feBlend mode="normal" in="SourceGraphic" in2="effect1_dropShadow_820_3461" result="shape"/>
</filter>
<filter id="filter1_d_820_3461" x="0.186523" y="10.3477" width="71" height="49.3333" filterUnits="userSpaceOnUse" color-interpolation-filters="sRGB">
<feFlood flood-opacity="0" result="BackgroundImageFix"/>
<feColorMatrix in="SourceAlpha" type="matrix" values="0 0 0 0 0 0 0 0 0 0 0 0 0 0 0 0 0 0 127 0" result="hardAlpha"/>
<feOffset dy="4"/>
<feGaussianBlur stdDeviation="2"/>
<feComposite in2="hardAlpha" operator="out"/>
<feColorMatrix type="matrix" values="0 0 0 0 0 0 0 0 0 0 0 0 0 0 0 0 0 0 0.25 0"/>
<feBlend mode="normal" in2="BackgroundImageFix" result="effect1_dropShadow_820_3461"/>
<feBlend mode="normal" in="SourceGraphic" in2="effect1_dropShadow_820_3461" result="shape"/>
</filter>
<clipPath id="clip0_820_3461">
<rect width="63" height="62" fill="white" transform="translate(4.18652 0.0144043)"/>
</clipPath>
</defs>
</svg>
