<svg width="90" height="90" viewBox="0 0 90 90" fill="none" xmlns="http://www.w3.org/2000/svg">
<path d="M21.9375 64.125C25.125 61.6875 28.6875 59.7656 32.625 58.3594C36.5625 56.9531 40.6875 56.25 45 56.25C49.3125 56.25 53.4375 56.9531 57.375 58.3594C61.3125 59.7656 64.875 61.6875 68.0625 64.125C70.25 61.5625 71.9531 58.6563 73.1719 55.4063C74.3906 52.1562 75 48.6875 75 45C75 36.6875 72.0781 29.6094 66.2344 23.7656C60.3906 17.9219 53.3125 15 45 15C36.6875 15 29.6094 17.9219 23.7656 23.7656C17.9219 29.6094 15 36.6875 15 45C15 48.6875 15.6094 52.1562 16.8281 55.4063C18.0469 58.6563 19.75 61.5625 21.9375 64.125ZM45 48.75C41.3125 48.75 38.2031 47.4844 35.6719 44.9531C33.1406 42.4219 31.875 39.3125 31.875 35.625C31.875 31.9375 33.1406 28.8281 35.6719 26.2969C38.2031 23.7656 41.3125 22.5 45 22.5C48.6875 22.5 51.7969 23.7656 54.3281 26.2969C56.8594 28.8281 58.125 31.9375 58.125 35.625C58.125 39.3125 56.8594 42.4219 54.3281 44.9531C51.7969 47.4844 48.6875 48.75 45 48.75ZM45 82.5C39.8125 82.5 34.9375 81.5156 30.375 79.5469C25.8125 77.5781 21.8438 74.9062 18.4688 71.5312C15.0937 68.1563 12.4219 64.1875 10.4531 59.625C8.48437 55.0625 7.5 50.1875 7.5 45C7.5 39.8125 8.48437 34.9375 10.4531 30.375C12.4219 25.8125 15.0937 21.8438 18.4688 18.4688C21.8438 15.0937 25.8125 12.4219 30.375 10.4531C34.9375 8.48437 39.8125 7.5 45 7.5C50.1875 7.5 55.0625 8.48437 59.625 10.4531C64.1875 12.4219 68.1563 15.0937 71.5312 18.4688C74.9062 21.8438 77.5781 25.8125 79.5469 30.375C81.5156 34.9375 82.5 39.8125 82.5 45C82.5 50.1875 81.5156 55.0625 79.5469 59.625C77.5781 64.1875 74.9062 68.1563 71.5312 71.5312C68.1563 74.9062 64.1875 77.5781 59.625 79.5469C55.0625 81.5156 50.1875 82.5 45 82.5Z" fill="#D9D9D9"/>
</svg>
