<svg width="25" height="25" viewBox="0 0 25 25" fill="none" xmlns="http://www.w3.org/2000/svg">
<path d="M9.80566 16.7549C9.10566 16.7549 8.514 16.5132 8.03066 16.0299C7.54733 15.5465 7.30566 14.9549 7.30566 14.2549C7.30566 13.5549 7.54733 12.9632 8.03066 12.4799C8.514 11.9965 9.10566 11.7549 9.80566 11.7549C10.5057 11.7549 11.0973 11.9965 11.5807 12.4799C12.064 12.9632 12.3057 13.5549 12.3057 14.2549C12.3057 14.9549 12.064 15.5465 11.5807 16.0299C11.0973 16.5132 10.5057 16.7549 9.80566 16.7549ZM5.80566 22.2549C5.25566 22.2549 4.78483 22.059 4.39316 21.6674C4.0015 21.2757 3.80566 20.8049 3.80566 20.2549L3.80566 6.25488C3.80566 5.70488 4.0015 5.23405 4.39316 4.84238C4.78483 4.45072 5.25566 4.25488 5.80566 4.25488H6.80566V2.25488H8.80566V4.25488H16.8057V2.25488H18.8057V4.25488H19.8057C20.3557 4.25488 20.8265 4.45072 21.2182 4.84238C21.6098 5.23405 21.8057 5.70488 21.8057 6.25488V20.2549C21.8057 20.8049 21.6098 21.2757 21.2182 21.6674C20.8265 22.059 20.3557 22.2549 19.8057 22.2549H5.80566ZM5.80566 20.2549H19.8057V10.2549H5.80566V20.2549Z" fill="#49454F"/>
</svg>
