<svg width="24" height="25" viewBox="0 0 24 25" fill="none" xmlns="http://www.w3.org/2000/svg">
<path d="M19.6 21.5652L13.3 15.2652C12.8 15.6652 12.225 15.9819 11.575 16.2152C10.925 16.4485 10.2333 16.5652 9.5 16.5652C7.68333 16.5652 6.14583 15.936 4.8875 14.6777C3.62917 13.4194 3 11.8819 3 10.0652C3 8.24852 3.62917 6.71102 4.8875 5.45269C6.14583 4.19435 7.68333 3.56519 9.5 3.56519C11.3167 3.56519 12.8542 4.19435 14.1125 5.45269C15.3708 6.71102 16 8.24852 16 10.0652C16 10.7985 15.8833 11.4902 15.65 12.1402C15.4167 12.7902 15.1 13.3652 14.7 13.8652L21 20.1652L19.6 21.5652ZM9.5 14.5652C10.75 14.5652 11.8125 14.1277 12.6875 13.2527C13.5625 12.3777 14 11.3152 14 10.0652C14 8.81519 13.5625 7.75269 12.6875 6.87769C11.8125 6.00269 10.75 5.56519 9.5 5.56519C8.25 5.56519 7.1875 6.00269 6.3125 6.87769C5.4375 7.75269 5 8.81519 5 10.0652C5 11.3152 5.4375 12.3777 6.3125 13.2527C7.1875 14.1277 8.25 14.5652 9.5 14.5652Z" fill="#45414A"/>
</svg>
