<svg width="36" height="33" viewBox="0 0 36 33" fill="none" xmlns="http://www.w3.org/2000/svg">
<path d="M6 26.125V23.375H9V13.75C9 11.8479 9.625 10.1635 10.875 8.69687C12.125 7.20729 13.75 6.23333 15.75 5.775V4.8125C15.75 4.23958 15.9625 3.75833 16.3875 3.36875C16.8375 2.95625 17.375 2.75 18 2.75C18.625 2.75 19.15 2.95625 19.575 3.36875C20.025 3.75833 20.25 4.23958 20.25 4.8125V5.775C22.25 6.23333 23.875 7.20729 25.125 8.69687C26.375 10.1635 27 11.8479 27 13.75V23.375H30V26.125H6ZM18 30.25C17.175 30.25 16.4625 29.9865 15.8625 29.4594C15.2875 28.9094 15 28.2563 15 27.5H21C21 28.2563 20.7 28.9094 20.1 29.4594C19.525 29.9865 18.825 30.25 18 30.25ZM12 23.375H24V13.75C24 12.2375 23.4125 10.9427 22.2375 9.86562C21.0625 8.78854 19.65 8.25 18 8.25C16.35 8.25 14.9375 8.78854 13.7625 9.86562C12.5875 10.9427 12 12.2375 12 13.75V23.375Z" fill="#1D1B20"/>
</svg>
