<svg width="760" height="199" viewBox="0 0 760 199" fill="none" xmlns="http://www.w3.org/2000/svg">
<g clip-path="url(#clip0_720_1363)">
<path d="M2 75.5L71 52.5L139.584 24.3611L207.844 2.90723L276.989 27.0701L344.875 82.0443L414.299 91.0811L483.343 36.0849L550.324 111.399L620.21 74.2117H688.596L757.109 82.0443" stroke="#05C985" stroke-width="2"/>
<path d="M71.5 53C71.5 53.8284 70.8284 54.5 70 54.5C69.1716 54.5 68.5 53.8284 68.5 53C68.5 52.1716 69.1716 51.5 70 51.5C70.8284 51.5 71.5 52.1716 71.5 53Z" fill="#2F3B52" stroke="#05C985"/>
<circle cx="139" cy="25" r="1.5" fill="#2F3B52" stroke="#05C985"/>
<circle cx="208" cy="3" r="1.5" fill="#2F3B52" stroke="#05C985"/>
<circle cx="277" cy="27" r="1.5" fill="#2F3B52" stroke="#05C985"/>
<circle cx="345" cy="81" r="1.5" fill="#2F3B52" stroke="#05C985"/>
<circle cx="414" cy="91" r="1.5" fill="#2F3B52" stroke="#05C985"/>
<circle cx="484" cy="36" r="1.5" fill="#2F3B52" stroke="#05C985"/>
<circle cx="551" cy="111" r="1.5" fill="#2F3B52" stroke="#05C985"/>
<path d="M621 74.627C621 75.4554 620.328 76.127 619.5 76.127C618.672 76.127 618 75.4554 618 74.627C618 73.7985 618.672 73.127 619.5 73.127C620.328 73.127 621 73.7985 621 74.627Z" fill="#2F3B52" stroke="#05C985"/>
<circle cx="689" cy="74" r="1.5" fill="#2F3B52" stroke="#05C985"/>
</g>
<rect x="0.98584" y="0.626953" width="758.169" height="198" rx="20" stroke="black"/>
<defs>
<clipPath id="clip0_720_1363">
<rect x="0.98584" y="0.626953" width="758.169" height="198" rx="20" fill="white"/>
</clipPath>
</defs>
</svg>
