<svg width="77" height="75" viewBox="0 0 77 75" fill="none" xmlns="http://www.w3.org/2000/svg">
<g filter="url(#filter0_d_762_4474)">
<path d="M38.5137 2.78809L41.27 2.90494L44.0053 3.25461L46.6988 3.83445L49.3301 4.64003L51.879 5.66522L54.3262 6.90222L56.653 8.34162L58.8418 9.97247L60.8759 11.7823L62.7398 13.7575L64.4194 15.8828L65.9017 18.1423L67.1757 20.5185L68.2314 22.9936L69.0611 25.5485L69.6582 28.164L70.0183 30.82L70.1387 33.4964L70.0183 36.1728L69.6582 38.8289L69.0611 41.4443L68.2314 43.9993L67.1757 46.4743L65.9017 48.8506L64.4194 51.11L62.7398 53.2354L60.8759 55.2105L58.8418 57.0204L56.653 58.6512L54.3262 60.0906L51.879 61.3276L49.3301 62.3528L46.6988 63.1584L44.0053 63.7382L41.27 64.0879L38.5137 64.2048L35.7574 64.0879L33.022 63.7382L30.3285 63.1584L27.6973 62.3528L25.1484 61.3276L22.7012 60.0906L20.3743 58.6512L18.1855 57.0204L16.1514 55.2105L14.2875 53.2354L12.608 51.11L11.1256 48.8506L9.85169 46.4743L8.79589 43.9993L7.96627 41.4443L7.36913 38.8289L7.00901 36.1728L6.88867 33.4964L7.00901 30.82L7.36913 28.164L7.96627 25.5485L8.79589 22.9936L9.85169 20.5185L11.1256 18.1423L12.608 15.8828L14.2875 13.7575L16.1514 11.7823L18.1855 9.97247L20.3743 8.34162L22.7012 6.90222L25.1484 5.66522L27.6973 4.64003L30.3285 3.83445L33.022 3.25461L35.7574 2.90494L38.5137 2.78809Z" stroke="#7C6BA7" stroke-width="4"/>
</g>
<defs>
<filter id="filter0_d_762_4474" x="0.0136719" y="-0.00366211" width="77" height="75" filterUnits="userSpaceOnUse" color-interpolation-filters="sRGB">
<feFlood flood-opacity="0" result="BackgroundImageFix"/>
<feColorMatrix in="SourceAlpha" type="matrix" values="0 0 0 0 0 0 0 0 0 0 0 0 0 0 0 0 0 0 127 0" result="hardAlpha"/>
<feOffset dy="4"/>
<feGaussianBlur stdDeviation="2"/>
<feComposite in2="hardAlpha" operator="out"/>
<feColorMatrix type="matrix" values="0 0 0 0 0 0 0 0 0 0 0 0 0 0 0 0 0 0 0.25 0"/>
<feBlend mode="normal" in2="BackgroundImageFix" result="effect1_dropShadow_762_4474"/>
<feBlend mode="normal" in="SourceGraphic" in2="effect1_dropShadow_762_4474" result="shape"/>
</filter>
</defs>
</svg>
