<svg width="77" height="75" viewBox="0 0 77 75" fill="none" xmlns="http://www.w3.org/2000/svg">
<g filter="url(#filter0_d_840_3198)">
<path d="M38.5342 3.44849L41.2905 3.56534L44.0258 3.91501L46.7193 4.49485L49.3506 5.30043L51.8995 6.32562L54.3467 7.56262L56.6735 9.00202L58.8623 10.6329L60.8964 12.4427L62.7603 14.4179L64.4399 16.5432L65.9222 18.8027L67.1962 21.1789L68.252 23.654L69.0816 26.2089L69.6787 28.8244L70.0388 31.4804L70.1592 34.1568L70.0388 36.8332L69.6787 39.4893L69.0816 42.1047L68.252 44.6597L67.1962 47.1347L65.9222 49.511L64.4399 51.7704L62.7603 53.8958L60.8964 55.8709L58.8623 57.6808L56.6735 59.3116L54.3467 60.751L51.8995 61.988L49.3506 63.0132L46.7193 63.8188L44.0258 64.3986L41.2905 64.7483L38.5342 64.8652L35.7779 64.7483L33.0426 64.3986L30.349 63.8188L27.7178 63.0132L25.1689 61.988L22.7217 60.751L20.3948 59.3116L18.206 57.6808L16.1719 55.8709L14.308 53.8958L12.6285 51.7704L11.1461 49.511L9.8722 47.1347L8.8164 44.6597L7.98678 42.1047L7.38963 39.4893L7.02952 36.8332L6.90918 34.1568L7.02952 31.4804L7.38963 28.8244L7.98678 26.2089L8.8164 23.654L9.8722 21.1789L11.1461 18.8027L12.6285 16.5432L14.308 14.4179L16.1719 12.4427L18.206 10.6329L20.3948 9.00202L22.7217 7.56262L25.1689 6.32562L27.7178 5.30043L30.349 4.49485L33.0426 3.91501L35.7779 3.56534L38.5342 3.44849Z" stroke="#7C6BA7" stroke-width="4"/>
</g>
<defs>
<filter id="filter0_d_840_3198" x="0.0341797" y="0.656738" width="77" height="75" filterUnits="userSpaceOnUse" color-interpolation-filters="sRGB">
<feFlood flood-opacity="0" result="BackgroundImageFix"/>
<feColorMatrix in="SourceAlpha" type="matrix" values="0 0 0 0 0 0 0 0 0 0 0 0 0 0 0 0 0 0 127 0" result="hardAlpha"/>
<feOffset dy="4"/>
<feGaussianBlur stdDeviation="2"/>
<feComposite in2="hardAlpha" operator="out"/>
<feColorMatrix type="matrix" values="0 0 0 0 0 0 0 0 0 0 0 0 0 0 0 0 0 0 0.25 0"/>
<feBlend mode="normal" in2="BackgroundImageFix" result="effect1_dropShadow_840_3198"/>
<feBlend mode="normal" in="SourceGraphic" in2="effect1_dropShadow_840_3198" result="shape"/>
</filter>
</defs>
</svg>
