<svg width="260" height="137" viewBox="0 0 260 137" fill="none" xmlns="http://www.w3.org/2000/svg">
<g filter="url(#filter0_d_840_3365)">
<path d="M4.03418 20.6567C4.03418 9.61104 12.9885 0.656738 24.0342 0.656738H235.034C246.08 0.656738 255.034 9.61104 255.034 20.6567V108.657C255.034 119.702 246.08 128.657 235.034 128.657H24.0342C12.9885 128.657 4.03418 119.702 4.03418 108.657V20.6567Z" fill="white" fill-opacity="0.7" shape-rendering="crispEdges"/>
<path d="M4.53418 20.6567C4.53418 9.88719 13.2646 1.15674 24.0342 1.15674H235.034C245.804 1.15674 254.534 9.88719 254.534 20.6567V108.657C254.534 119.426 245.804 128.157 235.034 128.157H24.0342C13.2646 128.157 4.53418 119.426 4.53418 108.657V20.6567Z" stroke="black" stroke-opacity="0.3" shape-rendering="crispEdges"/>
</g>
<defs>
<filter id="filter0_d_840_3365" x="0.0341797" y="0.656738" width="259" height="136" filterUnits="userSpaceOnUse" color-interpolation-filters="sRGB">
<feFlood flood-opacity="0" result="BackgroundImageFix"/>
<feColorMatrix in="SourceAlpha" type="matrix" values="0 0 0 0 0 0 0 0 0 0 0 0 0 0 0 0 0 0 127 0" result="hardAlpha"/>
<feOffset dy="4"/>
<feGaussianBlur stdDeviation="2"/>
<feComposite in2="hardAlpha" operator="out"/>
<feColorMatrix type="matrix" values="0 0 0 0 0 0 0 0 0 0 0 0 0 0 0 0 0 0 0.25 0"/>
<feBlend mode="normal" in2="BackgroundImageFix" result="effect1_dropShadow_840_3365"/>
<feBlend mode="normal" in="SourceGraphic" in2="effect1_dropShadow_840_3365" result="shape"/>
</filter>
</defs>
</svg>
