<svg width="47" height="41" viewBox="0 0 47 41" fill="none" xmlns="http://www.w3.org/2000/svg">
<rect x="0.216797" y="0.929199" width="46.2343" height="39.8512" rx="19.9256" fill="#7B6BA7"/>
<path fill-rule="evenodd" clip-rule="evenodd" d="M30.2694 16.8698C30.2694 20.1712 27.1644 22.8475 23.3342 22.8475C19.5041 22.8475 16.3991 20.1712 16.3991 16.8698C16.3991 13.5684 19.5041 10.8921 23.3342 10.8921C27.1644 10.8921 30.2694 13.5684 30.2694 16.8698ZM27.9577 16.8698C27.9577 19.0707 25.8877 20.8549 23.3342 20.8549C20.7808 20.8549 18.7108 19.0707 18.7108 16.8698C18.7108 14.6688 20.7808 12.8846 23.3342 12.8846C25.8877 12.8846 27.9577 14.6688 27.9577 16.8698Z" fill="white"/>
<path d="M23.3342 25.8363C15.8508 25.8363 9.47466 29.6505 7.04584 34.9941C7.63752 35.5006 8.2608 35.9796 8.91293 36.4288C10.7215 31.5228 16.3953 27.8288 23.3342 27.8288C30.2732 27.8288 35.9469 31.5228 37.7556 36.4288C38.4077 35.9796 39.031 35.5006 39.6227 34.9942C37.1938 29.6505 30.8177 25.8363 23.3342 25.8363Z" fill="white"/>
</svg>
