<svg width="47" height="39" viewBox="0 0 47 39" fill="none" xmlns="http://www.w3.org/2000/svg">
<rect x="0.717041" y="0.843262" width="46.0488" height="37.5652" rx="18.7826" fill="#7B6BA7"/>
<path fill-rule="evenodd" clip-rule="evenodd" d="M30.649 15.8694C30.649 18.9814 27.5565 21.5042 23.7417 21.5042C19.9269 21.5042 16.8344 18.9814 16.8344 15.8694C16.8344 12.7574 19.9269 10.2346 23.7417 10.2346C27.5565 10.2346 30.649 12.7574 30.649 15.8694ZM28.3466 15.8694C28.3466 17.9441 26.2849 19.6259 23.7417 19.6259C21.1985 19.6259 19.1368 17.9441 19.1368 15.8694C19.1368 13.7947 21.1985 12.1129 23.7417 12.1129C26.2849 12.1129 28.3466 13.7947 28.3466 15.8694Z" fill="white"/>
<path d="M23.7417 24.3216C16.2883 24.3216 9.93775 27.9169 7.51868 32.9541C8.10798 33.4315 8.72877 33.883 9.37827 34.3064C11.1796 29.6818 16.8306 26.1998 23.7417 26.1998C30.6528 26.1998 36.3038 29.6818 38.1052 34.3065C38.7547 33.883 39.3754 33.4315 39.9648 32.9541C37.5457 27.9169 31.1952 24.3216 23.7417 24.3216Z" fill="white"/>
</svg>
