<svg width="47" height="39" viewBox="0 0 47 39" fill="none" xmlns="http://www.w3.org/2000/svg">
<rect x="0.716797" y="0.843262" width="46.0488" height="37.5652" rx="18.7826" fill="#7B6BA7"/>
<path fill-rule="evenodd" clip-rule="evenodd" d="M30.6489 15.8694C30.6489 18.9814 27.5564 21.5042 23.7416 21.5042C19.9268 21.5042 16.8343 18.9814 16.8343 15.8694C16.8343 12.7574 19.9268 10.2346 23.7416 10.2346C27.5564 10.2346 30.6489 12.7574 30.6489 15.8694ZM28.3465 15.8694C28.3465 17.9441 26.2848 19.6259 23.7416 19.6259C21.1984 19.6259 19.1367 17.9441 19.1367 15.8694C19.1367 13.7947 21.1984 12.1129 23.7416 12.1129C26.2848 12.1129 28.3465 13.7947 28.3465 15.8694Z" fill="white"/>
<path d="M23.7416 24.3216C16.2882 24.3216 9.93763 27.9169 7.51855 32.9541C8.10786 33.4315 8.72865 33.883 9.37815 34.3064C11.1795 29.6818 16.8305 26.1998 23.7416 26.1998C30.6527 26.1998 36.3037 29.6818 38.105 34.3065C38.7545 33.883 39.3753 33.4315 39.9646 32.9541C37.5456 27.9169 31.195 24.3216 23.7416 24.3216Z" fill="white"/>
</svg>
