<svg width="47" height="39" viewBox="0 0 47 39" fill="none" xmlns="http://www.w3.org/2000/svg">
<rect x="0.716797" y="0.843262" width="46.0488" height="37.5652" rx="18.7826" fill="#7B6BA7"/>
<path fill-rule="evenodd" clip-rule="evenodd" d="M30.6489 15.8692C30.6489 18.9812 27.5564 21.5039 23.7416 21.5039C19.9268 21.5039 16.8343 18.9812 16.8343 15.8692C16.8343 12.7572 19.9268 10.2344 23.7416 10.2344C27.5564 10.2344 30.6489 12.7572 30.6489 15.8692ZM28.3465 15.8692C28.3465 17.9438 26.2848 19.6257 23.7416 19.6257C21.1984 19.6257 19.1367 17.9438 19.1367 15.8692C19.1367 13.7945 21.1984 12.1126 23.7416 12.1126C26.2848 12.1126 28.3465 13.7945 28.3465 15.8692Z" fill="white"/>
<path d="M23.7416 24.3213C16.2882 24.3213 9.93763 27.9167 7.51855 32.9538C8.10786 33.4312 8.72865 33.8827 9.37815 34.3062C11.1795 29.6816 16.8305 26.1996 23.7416 26.1996C30.6527 26.1996 36.3037 29.6816 38.105 34.3062C38.7545 33.8828 39.3753 33.4312 39.9646 32.9539C37.5456 27.9167 31.195 24.3213 23.7416 24.3213Z" fill="white"/>
</svg>
