<svg width="72" height="63" viewBox="0 0 72 63" fill="none" xmlns="http://www.w3.org/2000/svg">
<g clip-path="url(#clip0_840_3278)" filter="url(#filter0_d_840_3278)">
<g filter="url(#filter1_d_840_3278)">
<path d="M4.20801 52.3414V45.1726C4.20801 43.7088 4.57988 42.3525 5.32363 41.1039C6.06738 39.8553 7.09551 38.9081 8.40801 38.2622C9.02051 37.9608 9.61113 37.681 10.1799 37.4226C10.7924 37.1643 11.4268 36.9275 12.083 36.7122V52.3414H4.20801ZM14.708 34.2581C12.5205 34.2581 10.6611 33.5046 9.12988 31.9976C7.59863 30.4907 6.83301 28.6608 6.83301 26.5081C6.83301 24.3553 7.59863 22.5254 9.12988 21.0185C10.6611 19.5115 12.5205 18.7581 14.708 18.7581C16.8955 18.7581 18.7549 19.5115 20.2861 21.0185C21.8174 22.5254 22.583 24.3553 22.583 26.5081C22.583 28.6608 21.8174 30.4907 20.2861 31.9976C18.7549 33.5046 16.8955 34.2581 14.708 34.2581ZM14.708 29.0914C15.4518 29.0914 16.0643 28.8546 16.5455 28.381C17.0705 27.8643 17.333 27.24 17.333 26.5081C17.333 25.7761 17.0705 25.1733 16.5455 24.6997C16.0643 24.1831 15.4518 23.9247 14.708 23.9247C13.9643 23.9247 13.3299 24.1831 12.8049 24.6997C12.3236 25.1733 12.083 25.7761 12.083 26.5081C12.083 27.24 12.3236 27.8643 12.8049 28.381C13.3299 28.8546 13.9643 29.0914 14.708 29.0914ZM14.708 52.3414V45.1081C14.708 43.6442 15.0799 42.3094 15.8236 41.1039C16.6111 39.8553 17.6393 38.9081 18.908 38.2622C21.6205 36.9275 24.3768 35.9372 27.1768 35.2914C29.9768 34.6025 32.8205 34.2581 35.708 34.2581C38.5955 34.2581 41.4393 34.6025 44.2393 35.2914C47.0393 35.9372 49.7955 36.9275 52.508 38.2622C53.7768 38.9081 54.783 39.8553 55.5268 41.1039C56.3143 42.3094 56.708 43.6442 56.708 45.1081V52.3414H14.708ZM19.958 47.1747H51.458V45.1081C51.458 44.6344 51.3268 44.2039 51.0643 43.8164C50.8455 43.4289 50.5393 43.1275 50.1455 42.9122C47.783 41.7497 45.3986 40.8886 42.9924 40.3289C40.5861 39.7261 38.158 39.4247 35.708 39.4247C33.258 39.4247 30.8299 39.7261 28.4236 40.3289C26.0174 40.8886 23.633 41.7497 21.2705 42.9122C20.8768 43.1275 20.5486 43.4289 20.2861 43.8164C20.0674 44.2039 19.958 44.6344 19.958 45.1081V47.1747ZM35.708 31.6747C32.8205 31.6747 30.3486 30.6629 28.2924 28.6393C26.2361 26.6157 25.208 24.1831 25.208 21.3414C25.208 18.4997 26.2361 16.0671 28.2924 14.0435C30.3486 12.0199 32.8205 11.0081 35.708 11.0081C38.5955 11.0081 41.0674 12.0199 43.1236 14.0435C45.1799 16.0671 46.208 18.4997 46.208 21.3414C46.208 24.1831 45.1799 26.6157 43.1236 28.6393C41.0674 30.6629 38.5955 31.6747 35.708 31.6747ZM35.708 26.5081C37.1518 26.5081 38.3768 26.0129 39.383 25.0226C40.433 23.9893 40.958 22.7622 40.958 21.3414C40.958 19.9206 40.433 18.715 39.383 17.7247C38.3768 16.6914 37.1518 16.1747 35.708 16.1747C34.2643 16.1747 33.0174 16.6914 31.9674 17.7247C30.9611 18.715 30.458 19.9206 30.458 21.3414C30.458 22.7622 30.9611 23.9893 31.9674 25.0226C33.0174 26.0129 34.2643 26.5081 35.708 26.5081ZM56.708 34.2581C54.5205 34.2581 52.6611 33.5046 51.1299 31.9976C49.5986 30.4907 48.833 28.6608 48.833 26.5081C48.833 24.3553 49.5986 22.5254 51.1299 21.0185C52.6611 19.5115 54.5205 18.7581 56.708 18.7581C58.8955 18.7581 60.7549 19.5115 62.2861 21.0185C63.8174 22.5254 64.583 24.3553 64.583 26.5081C64.583 28.6608 63.8174 30.4907 62.2861 31.9976C60.7549 33.5046 58.8955 34.2581 56.708 34.2581ZM56.708 29.0914C57.4518 29.0914 58.0643 28.8546 58.5455 28.381C59.0705 27.8643 59.333 27.24 59.333 26.5081C59.333 25.7761 59.0705 25.1733 58.5455 24.6997C58.0643 24.1831 57.4518 23.9247 56.708 23.9247C55.9643 23.9247 55.3299 24.1831 54.8049 24.6997C54.3236 25.1733 54.083 25.7761 54.083 26.5081C54.083 27.24 54.3236 27.8643 54.8049 28.381C55.3299 28.8546 55.9643 29.0914 56.708 29.0914ZM59.333 52.3414V36.7122C59.9893 36.9275 60.6018 37.1643 61.1705 37.4226C61.783 37.681 62.3955 37.9608 63.008 38.2622C64.3205 38.9081 65.3486 39.8553 66.0924 41.1039C66.8361 42.3525 67.208 43.7088 67.208 45.1726V52.3414H59.333Z" fill="#1D1B20"/>
</g>
</g>
<defs>
<filter id="filter0_d_840_3278" x="0.208008" y="0.674805" width="71" height="70" filterUnits="userSpaceOnUse" color-interpolation-filters="sRGB">
<feFlood flood-opacity="0" result="BackgroundImageFix"/>
<feColorMatrix in="SourceAlpha" type="matrix" values="0 0 0 0 0 0 0 0 0 0 0 0 0 0 0 0 0 0 127 0" result="hardAlpha"/>
<feOffset dy="4"/>
<feGaussianBlur stdDeviation="2"/>
<feComposite in2="hardAlpha" operator="out"/>
<feColorMatrix type="matrix" values="0 0 0 0 0 0 0 0 0 0 0 0 0 0 0 0 0 0 0.25 0"/>
<feBlend mode="normal" in2="BackgroundImageFix" result="effect1_dropShadow_840_3278"/>
<feBlend mode="normal" in="SourceGraphic" in2="effect1_dropShadow_840_3278" result="shape"/>
</filter>
<filter id="filter1_d_840_3278" x="0.208008" y="11.0081" width="71" height="49.3333" filterUnits="userSpaceOnUse" color-interpolation-filters="sRGB">
<feFlood flood-opacity="0" result="BackgroundImageFix"/>
<feColorMatrix in="SourceAlpha" type="matrix" values="0 0 0 0 0 0 0 0 0 0 0 0 0 0 0 0 0 0 127 0" result="hardAlpha"/>
<feOffset dy="4"/>
<feGaussianBlur stdDeviation="2"/>
<feComposite in2="hardAlpha" operator="out"/>
<feColorMatrix type="matrix" values="0 0 0 0 0 0 0 0 0 0 0 0 0 0 0 0 0 0 0.25 0"/>
<feBlend mode="normal" in2="BackgroundImageFix" result="effect1_dropShadow_840_3278"/>
<feBlend mode="normal" in="SourceGraphic" in2="effect1_dropShadow_840_3278" result="shape"/>
</filter>
<clipPath id="clip0_840_3278">
<rect width="63" height="62" fill="white" transform="translate(4.20801 0.674805)"/>
</clipPath>
</defs>
</svg>
