<svg width="35" height="39" viewBox="0 0 35 39" fill="none" xmlns="http://www.w3.org/2000/svg">
<g filter="url(#filter0_d_1690_1472)">
<path d="M12.8906 23.2599C11.888 23.2599 11.0406 22.9256 10.3483 22.2572C9.65603 21.5887 9.3099 20.7704 9.3099 19.8022C9.3099 18.8341 9.65603 18.0158 10.3483 17.3473C11.0406 16.6788 11.888 16.3446 12.8906 16.3446C13.8932 16.3446 14.7407 16.6788 15.4329 17.3473C16.1252 18.0158 16.4714 18.8341 16.4714 19.8022C16.4714 20.7704 16.1252 21.5887 15.4329 22.2572C14.7407 22.9256 13.8932 23.2599 12.8906 23.2599ZM7.16146 30.8667C6.3737 30.8667 5.69933 30.5959 5.13835 30.0542C4.57737 29.5125 4.29687 28.8613 4.29687 28.1006L4.29688 8.73779C4.29688 7.97711 4.57737 7.32592 5.13835 6.78423C5.69933 6.24253 6.3737 5.97168 7.16146 5.97168H8.59375V3.20557H11.4583V5.97168H22.9167V3.20557H25.7812V5.97168H27.2135C28.0013 5.97168 28.6757 6.24253 29.2367 6.78423C29.7976 7.32592 30.0781 7.97711 30.0781 8.73779V28.1006C30.0781 28.8613 29.7976 29.5125 29.2367 30.0542C28.6757 30.5959 28.0013 30.8667 27.2135 30.8667H7.16146ZM7.16146 28.1006H27.2135V14.27H7.16146L7.16146 28.1006Z" fill="#49454F"/>
</g>
<defs>
<filter id="filter0_d_1690_1472" x="-4" y="0.439453" width="42.375" height="41.1934" filterUnits="userSpaceOnUse" color-interpolation-filters="sRGB">
<feFlood flood-opacity="0" result="BackgroundImageFix"/>
<feColorMatrix in="SourceAlpha" type="matrix" values="0 0 0 0 0 0 0 0 0 0 0 0 0 0 0 0 0 0 127 0" result="hardAlpha"/>
<feOffset dy="4"/>
<feGaussianBlur stdDeviation="2"/>
<feComposite in2="hardAlpha" operator="out"/>
<feColorMatrix type="matrix" values="0 0 0 0 0 0 0 0 0 0 0 0 0 0 0 0 0 0 0.25 0"/>
<feBlend mode="normal" in2="BackgroundImageFix" result="effect1_dropShadow_1690_1472"/>
<feBlend mode="normal" in="SourceGraphic" in2="effect1_dropShadow_1690_1472" result="shape"/>
</filter>
</defs>
</svg>
