<svg width="24" height="25" viewBox="0 0 24 25" fill="none" xmlns="http://www.w3.org/2000/svg">
<path d="M19.6 21.5513L13.3 15.2513C12.8 15.6513 12.225 15.9679 11.575 16.2013C10.925 16.4346 10.2333 16.5513 9.5 16.5513C7.68333 16.5513 6.14583 15.9221 4.8875 14.6638C3.62917 13.4054 3 11.8679 3 10.0513C3 8.2346 3.62917 6.6971 4.8875 5.43877C6.14583 4.18044 7.68333 3.55127 9.5 3.55127C11.3167 3.55127 12.8542 4.18044 14.1125 5.43877C15.3708 6.6971 16 8.2346 16 10.0513C16 10.7846 15.8833 11.4763 15.65 12.1263C15.4167 12.7763 15.1 13.3513 14.7 13.8513L21 20.1513L19.6 21.5513ZM9.5 14.5513C10.75 14.5513 11.8125 14.1138 12.6875 13.2388C13.5625 12.3638 14 11.3013 14 10.0513C14 8.80127 13.5625 7.73877 12.6875 6.86377C11.8125 5.98877 10.75 5.55127 9.5 5.55127C8.25 5.55127 7.1875 5.98877 6.3125 6.86377C5.4375 7.73877 5 8.80127 5 10.0513C5 11.3013 5.4375 12.3638 6.3125 13.2388C7.1875 14.1138 8.25 14.5513 9.5 14.5513Z" fill="#45414A"/>
</svg>
