<svg width="24" height="25" viewBox="0 0 24 25" fill="none" xmlns="http://www.w3.org/2000/svg">
<path d="M19.6 21.5654L13.3 15.2654C12.8 15.6654 12.225 15.9821 11.575 16.2154C10.925 16.4488 10.2333 16.5654 9.5 16.5654C7.68333 16.5654 6.14583 15.9363 4.8875 14.6779C3.62917 13.4196 3 11.8821 3 10.0654C3 8.24876 3.62917 6.71126 4.8875 5.45293C6.14583 4.1946 7.68333 3.56543 9.5 3.56543C11.3167 3.56543 12.8542 4.1946 14.1125 5.45293C15.3708 6.71126 16 8.24876 16 10.0654C16 10.7988 15.8833 11.4904 15.65 12.1404C15.4167 12.7904 15.1 13.3654 14.7 13.8654L21 20.1654L19.6 21.5654ZM9.5 14.5654C10.75 14.5654 11.8125 14.1279 12.6875 13.2529C13.5625 12.3779 14 11.3154 14 10.0654C14 8.81543 13.5625 7.75293 12.6875 6.87793C11.8125 6.00293 10.75 5.56543 9.5 5.56543C8.25 5.56543 7.1875 6.00293 6.3125 6.87793C5.4375 7.75293 5 8.81543 5 10.0654C5 11.3154 5.4375 12.3779 6.3125 13.2529C7.1875 14.1279 8.25 14.5654 9.5 14.5654Z" fill="#45414A"/>
</svg>
