<svg width="24" height="25" viewBox="0 0 24 25" fill="none" xmlns="http://www.w3.org/2000/svg">
<path d="M19.6 21.8513L13.3 15.5513C12.8 15.9513 12.225 16.268 11.575 16.5013C10.925 16.7347 10.2333 16.8513 9.5 16.8513C7.68333 16.8513 6.14583 16.2222 4.8875 14.9638C3.62917 13.7055 3 12.168 3 10.3513C3 8.53465 3.62917 6.99715 4.8875 5.73882C6.14583 4.48049 7.68333 3.85132 9.5 3.85132C11.3167 3.85132 12.8542 4.48049 14.1125 5.73882C15.3708 6.99715 16 8.53465 16 10.3513C16 11.0847 15.8833 11.7763 15.65 12.4263C15.4167 13.0763 15.1 13.6513 14.7 14.1513L21 20.4513L19.6 21.8513ZM9.5 14.8513C10.75 14.8513 11.8125 14.4138 12.6875 13.5388C13.5625 12.6638 14 11.6013 14 10.3513C14 9.10132 13.5625 8.03882 12.6875 7.16382C11.8125 6.28882 10.75 5.85132 9.5 5.85132C8.25 5.85132 7.1875 6.28882 6.3125 7.16382C5.4375 8.03882 5 9.10132 5 10.3513C5 11.6013 5.4375 12.6638 6.3125 13.5388C7.1875 14.4138 8.25 14.8513 9.5 14.8513Z" fill="#45414A"/>
</svg>
