<svg width="35" height="37" viewBox="0 0 35 37" fill="none" xmlns="http://www.w3.org/2000/svg">
<g filter="url(#filter0_d_1690_498)">
<path d="M7.29167 28.284C6.48958 28.284 5.79688 28.0263 5.21354 27.5109C4.65451 26.973 4.375 26.3343 4.375 25.5948V6.76984C4.375 6.03029 4.65451 5.40279 5.21354 4.88735C5.79688 4.34949 6.48958 4.08057 7.29167 4.08057H27.7083C28.5104 4.08057 29.191 4.34949 29.75 4.88735C30.3333 5.40279 30.625 6.03029 30.625 6.76984V25.5948C30.625 26.3343 30.3333 26.973 29.75 27.5109C29.191 28.0263 28.5104 28.284 27.7083 28.284H7.29167ZM17.5 21.5609C18.4236 21.5609 19.2622 21.3143 20.0156 20.8213C20.7691 20.3283 21.2917 19.6784 21.5833 18.8716H27.7083V6.76984H7.29167V18.8716H13.4167C13.7083 19.6784 14.2309 20.3283 14.9844 20.8213C15.7378 21.3143 16.5764 21.5609 17.5 21.5609Z" fill="#1D1B20"/>
</g>
<defs>
<filter id="filter0_d_1690_498" x="-4" y="0.046875" width="43" height="40.2715" filterUnits="userSpaceOnUse" color-interpolation-filters="sRGB">
<feFlood flood-opacity="0" result="BackgroundImageFix"/>
<feColorMatrix in="SourceAlpha" type="matrix" values="0 0 0 0 0 0 0 0 0 0 0 0 0 0 0 0 0 0 127 0" result="hardAlpha"/>
<feOffset dy="4"/>
<feGaussianBlur stdDeviation="2"/>
<feComposite in2="hardAlpha" operator="out"/>
<feColorMatrix type="matrix" values="0 0 0 0 0 0 0 0 0 0 0 0 0 0 0 0 0 0 0.25 0"/>
<feBlend mode="normal" in2="BackgroundImageFix" result="effect1_dropShadow_1690_498"/>
<feBlend mode="normal" in="SourceGraphic" in2="effect1_dropShadow_1690_498" result="shape"/>
</filter>
</defs>
</svg>
