<svg width="35" height="37" viewBox="0 0 35 37" fill="none" xmlns="http://www.w3.org/2000/svg">
<g filter="url(#filter0_d_1337_4692)">
<path d="M7.29167 28.073C6.48958 28.073 5.79688 27.8168 5.21354 27.3043C4.65451 26.7696 4.375 26.1346 4.375 25.3994V6.68411C4.375 5.94887 4.65451 5.32502 5.21354 4.81258C5.79688 4.27786 6.48958 4.0105 7.29167 4.0105H27.7083C28.5104 4.0105 29.191 4.27786 29.75 4.81258C30.3333 5.32502 30.625 5.94887 30.625 6.68411V25.3994C30.625 26.1346 30.3333 26.7696 29.75 27.3043C29.191 27.8168 28.5104 28.073 27.7083 28.073H7.29167ZM17.5 21.389C18.4236 21.389 19.2622 21.1439 20.0156 20.6537C20.7691 20.1636 21.2917 19.5174 21.5833 18.7154H27.7083V6.68411H7.29167V18.7154H13.4167C13.7083 19.5174 14.2309 20.1636 14.9844 20.6537C15.7378 21.1439 16.5764 21.389 17.5 21.389Z" fill="#1D1B20"/>
</g>
<defs>
<filter id="filter0_d_1337_4692" x="-4" y="0" width="43" height="40.0833" filterUnits="userSpaceOnUse" color-interpolation-filters="sRGB">
<feFlood flood-opacity="0" result="BackgroundImageFix"/>
<feColorMatrix in="SourceAlpha" type="matrix" values="0 0 0 0 0 0 0 0 0 0 0 0 0 0 0 0 0 0 127 0" result="hardAlpha"/>
<feOffset dy="4"/>
<feGaussianBlur stdDeviation="2"/>
<feComposite in2="hardAlpha" operator="out"/>
<feColorMatrix type="matrix" values="0 0 0 0 0 0 0 0 0 0 0 0 0 0 0 0 0 0 0.25 0"/>
<feBlend mode="normal" in2="BackgroundImageFix" result="effect1_dropShadow_1337_4692"/>
<feBlend mode="normal" in="SourceGraphic" in2="effect1_dropShadow_1337_4692" result="shape"/>
</filter>
</defs>
</svg>
