<svg width="35" height="37" viewBox="0 0 35 37" fill="none" xmlns="http://www.w3.org/2000/svg">
<g filter="url(#filter0_d_1690_4927)">
<path d="M7.29167 28.0728C6.48958 28.0728 5.79688 27.8165 5.21354 27.3041C4.65451 26.7694 4.375 26.1344 4.375 25.3991V6.68387C4.375 5.94862 4.65451 5.32478 5.21354 4.81234C5.79688 4.27762 6.48958 4.01025 7.29167 4.01025H27.7083C28.5104 4.01025 29.191 4.27762 29.75 4.81234C30.3333 5.32478 30.625 5.94862 30.625 6.68387V25.3991C30.625 26.1344 30.3333 26.7694 29.75 27.3041C29.191 27.8165 28.5104 28.0728 27.7083 28.0728H7.29167ZM17.5 21.3887C18.4236 21.3887 19.2622 21.1436 20.0156 20.6535C20.7691 20.1633 21.2917 19.5172 21.5833 18.7151H27.7083V6.68387H7.29167V18.7151H13.4167C13.7083 19.5172 14.2309 20.1633 14.9844 20.6535C15.7378 21.1436 16.5764 21.3887 17.5 21.3887Z" fill="#1D1B20"/>
</g>
<defs>
<filter id="filter0_d_1690_4927" x="-4" y="0" width="43" height="40.0835" filterUnits="userSpaceOnUse" color-interpolation-filters="sRGB">
<feFlood flood-opacity="0" result="BackgroundImageFix"/>
<feColorMatrix in="SourceAlpha" type="matrix" values="0 0 0 0 0 0 0 0 0 0 0 0 0 0 0 0 0 0 127 0" result="hardAlpha"/>
<feOffset dy="4"/>
<feGaussianBlur stdDeviation="2"/>
<feComposite in2="hardAlpha" operator="out"/>
<feColorMatrix type="matrix" values="0 0 0 0 0 0 0 0 0 0 0 0 0 0 0 0 0 0 0.25 0"/>
<feBlend mode="normal" in2="BackgroundImageFix" result="effect1_dropShadow_1690_4927"/>
<feBlend mode="normal" in="SourceGraphic" in2="effect1_dropShadow_1690_4927" result="shape"/>
</filter>
</defs>
</svg>
