<svg width="35" height="37" viewBox="0 0 35 37" fill="none" xmlns="http://www.w3.org/2000/svg">
<g filter="url(#filter0_d_1690_1706)">
<path d="M7.29167 28.9606C6.48958 28.9606 5.79688 28.7017 5.21354 28.1837C4.65451 27.6432 4.375 27.0014 4.375 26.2583V7.34198C4.375 6.59884 4.65451 5.9683 5.21354 5.45035C5.79688 4.90988 6.48958 4.63965 7.29167 4.63965H27.7083C28.5104 4.63965 29.191 4.90988 29.75 5.45035C30.3333 5.9683 30.625 6.59884 30.625 7.34198V26.2583C30.625 27.0014 30.3333 27.6432 29.75 28.1837C29.191 28.7017 28.5104 28.9606 27.7083 28.9606H7.29167ZM17.5 22.2048C18.4236 22.2048 19.2622 21.9571 20.0156 21.4617C20.7691 20.9662 21.2917 20.3132 21.5833 19.5025H27.7083V7.34198H7.29167V19.5025H13.4167C13.7083 20.3132 14.2309 20.9662 14.9844 21.4617C15.7378 21.9571 16.5764 22.2048 17.5 22.2048Z" fill="#1D1B20"/>
</g>
<defs>
<filter id="filter0_d_1690_1706" x="-4" y="0.585938" width="43" height="40.4277" filterUnits="userSpaceOnUse" color-interpolation-filters="sRGB">
<feFlood flood-opacity="0" result="BackgroundImageFix"/>
<feColorMatrix in="SourceAlpha" type="matrix" values="0 0 0 0 0 0 0 0 0 0 0 0 0 0 0 0 0 0 127 0" result="hardAlpha"/>
<feOffset dy="4"/>
<feGaussianBlur stdDeviation="2"/>
<feComposite in2="hardAlpha" operator="out"/>
<feColorMatrix type="matrix" values="0 0 0 0 0 0 0 0 0 0 0 0 0 0 0 0 0 0 0.25 0"/>
<feBlend mode="normal" in2="BackgroundImageFix" result="effect1_dropShadow_1690_1706"/>
<feBlend mode="normal" in="SourceGraphic" in2="effect1_dropShadow_1690_1706" result="shape"/>
</filter>
</defs>
</svg>
