<svg width="1045" height="256" viewBox="0 0 1045 256" fill="none" xmlns="http://www.w3.org/2000/svg">
<path d="M1.53174 255.765C1.53174 255.765 23.1041 118.141 37.4857 115.495C51.8673 112.848 59.0581 112.848 73.4397 112.848C87.8213 112.848 95.012 152.547 109.394 152.547C123.775 152.547 130.966 112.848 145.348 112.848C159.729 112.848 166.92 234.593 181.302 234.593C195.683 234.593 202.874 222.947 217.256 176.367C231.637 129.786 238.828 1.69019 253.21 1.69019C267.591 1.69019 274.782 102.262 289.163 128.728C303.545 155.194 310.736 155.194 325.117 155.194C339.499 155.194 346.69 115.495 361.071 115.495C375.453 115.495 382.644 155.194 397.025 155.194C411.407 155.194 418.598 94.3218 432.979 94.3218C447.361 94.3218 454.552 99.0857 468.933 115.495C483.315 131.904 490.506 176.367 504.887 176.367C519.269 176.367 526.46 162.605 540.841 152.547C555.223 142.49 562.414 126.081 576.795 126.081C591.177 126.081 598.368 205.48 612.749 205.48C627.131 205.48 634.322 126.081 648.703 126.081C663.085 126.081 670.275 213.42 684.657 213.42C699.039 213.42 706.229 198.069 720.611 176.367C734.993 154.665 742.183 104.908 756.565 104.908C770.947 104.908 778.137 221.359 792.519 221.359C806.901 221.359 814.091 213.42 828.473 176.367C842.855 139.314 850.045 67.8556 864.427 36.0962C878.808 4.3368 885.999 4.3368 900.381 4.3368C914.762 4.3368 921.953 18.6285 936.335 67.8556C950.716 117.083 957.907 250.472 972.289 250.472C986.67 250.472 993.861 192.247 1008.24 176.367C1022.62 160.487 1044.2 160.487 1044.2 160.487" stroke="#9A6399" stroke-width="2"/>
</svg>
