<svg width="70" height="59" viewBox="0 0 70 59" fill="none" xmlns="http://www.w3.org/2000/svg">
<g filter="url(#filter0_d_840_3058)">
<path d="M11.6865 48.3478C10.1053 48.3478 8.75163 47.8746 7.62559 46.928C6.49954 45.9815 5.93652 44.8437 5.93652 43.5145V14.5145C5.93652 13.1853 6.49954 12.0475 7.62559 11.1009C8.75163 10.1544 10.1053 9.68115 11.6865 9.68115H57.6865C59.2678 9.68115 60.6214 10.1544 61.7475 11.1009C62.8735 12.0475 63.4365 13.1853 63.4365 14.5145V43.5145C63.4365 44.8437 62.8735 45.9815 61.7475 46.928C60.6214 47.8746 59.2678 48.3478 57.6865 48.3478H11.6865ZM34.6865 31.4312L11.6865 19.3478V43.5145H57.6865V19.3478L34.6865 31.4312ZM34.6865 26.5978L57.6865 14.5145H11.6865L34.6865 26.5978ZM11.6865 19.3478V14.5145V43.5145V19.3478Z" fill="#1D1B20"/>
</g>
<defs>
<filter id="filter0_d_840_3058" x="-3.81348" y="0.0144043" width="77" height="66" filterUnits="userSpaceOnUse" color-interpolation-filters="sRGB">
<feFlood flood-opacity="0" result="BackgroundImageFix"/>
<feColorMatrix in="SourceAlpha" type="matrix" values="0 0 0 0 0 0 0 0 0 0 0 0 0 0 0 0 0 0 127 0" result="hardAlpha"/>
<feOffset dy="4"/>
<feGaussianBlur stdDeviation="2"/>
<feComposite in2="hardAlpha" operator="out"/>
<feColorMatrix type="matrix" values="0 0 0 0 0 0 0 0 0 0 0 0 0 0 0 0 0 0 0.25 0"/>
<feBlend mode="normal" in2="BackgroundImageFix" result="effect1_dropShadow_840_3058"/>
<feBlend mode="normal" in="SourceGraphic" in2="effect1_dropShadow_840_3058" result="shape"/>
</filter>
</defs>
</svg>
