<svg width="43" height="41" viewBox="0 0 43 41" fill="none" xmlns="http://www.w3.org/2000/svg">
<g clip-path="url(#clip0_1337_4689)" filter="url(#filter0_d_1337_4689)">
<path d="M34.9313 21.8488C34.0036 23.9174 32.5525 25.7403 30.7049 27.158C28.8573 28.5758 26.6695 29.5452 24.3328 29.9816C21.996 30.4179 19.5815 30.3079 17.3003 29.6612C15.019 29.0145 12.9406 27.8507 11.2465 26.2717C9.55254 24.6926 8.29458 22.7463 7.58265 20.6029C6.87072 18.4596 6.7265 16.1844 7.1626 13.9764C7.59869 11.7683 8.60182 9.69461 10.0843 7.93654C11.5668 6.17847 13.4834 4.78956 15.6667 3.89125M36.0834 16.5C36.0834 14.6943 35.7062 12.9063 34.9733 11.2381C34.2404 9.56988 33.1662 8.05409 31.812 6.77728C30.4578 5.50048 28.8502 4.48766 27.0809 3.79666C25.3115 3.10565 23.4152 2.75 21.5001 2.75V16.5H36.0834Z" stroke="#1E1E1E" stroke-width="4" stroke-linecap="round" stroke-linejoin="round"/>
</g>
<defs>
<filter id="filter0_d_1337_4689" x="0" y="0" width="43" height="41" filterUnits="userSpaceOnUse" color-interpolation-filters="sRGB">
<feFlood flood-opacity="0" result="BackgroundImageFix"/>
<feColorMatrix in="SourceAlpha" type="matrix" values="0 0 0 0 0 0 0 0 0 0 0 0 0 0 0 0 0 0 127 0" result="hardAlpha"/>
<feOffset dy="4"/>
<feGaussianBlur stdDeviation="2"/>
<feComposite in2="hardAlpha" operator="out"/>
<feColorMatrix type="matrix" values="0 0 0 0 0 0 0 0 0 0 0 0 0 0 0 0 0 0 0.25 0"/>
<feBlend mode="normal" in2="BackgroundImageFix" result="effect1_dropShadow_1337_4689"/>
<feBlend mode="normal" in="SourceGraphic" in2="effect1_dropShadow_1337_4689" result="shape"/>
</filter>
<clipPath id="clip0_1337_4689">
<rect width="35" height="33" fill="white" transform="translate(4)"/>
</clipPath>
</defs>
</svg>
