<svg width="43" height="41" viewBox="0 0 43 41" fill="none" xmlns="http://www.w3.org/2000/svg">
<g filter="url(#filter0_d_1690_250)">
<path d="M34.9312 22.2151C34.0034 24.2958 32.5523 26.1294 30.7048 27.5554C28.8572 28.9815 26.6694 29.9566 24.3327 30.3955C21.9959 30.8344 19.5814 30.7238 17.3002 30.0733C15.0189 29.4228 12.9404 28.2522 11.2464 26.6639C9.55242 25.0755 8.29446 23.1178 7.58253 20.9619C6.8706 18.806 6.72638 16.5175 7.16248 14.2965C7.59857 12.0756 8.6017 9.9897 10.0842 8.22132C11.5666 6.45295 13.4833 5.05591 15.6666 4.15233M36.0833 16.835C36.0833 15.0187 35.7061 13.2202 34.9732 11.5422C34.2403 9.86423 33.1661 8.33956 31.8119 7.05527C30.4577 5.77099 28.8501 4.75223 27.0807 4.05718C25.3114 3.36213 23.415 3.00439 21.4999 3.00439V16.835H36.0833Z" stroke="#1E1E1E" stroke-width="4" stroke-linecap="round" stroke-linejoin="round"/>
</g>
<defs>
<filter id="filter0_d_1690_250" x="0" y="0.238281" width="43" height="41.1934" filterUnits="userSpaceOnUse" color-interpolation-filters="sRGB">
<feFlood flood-opacity="0" result="BackgroundImageFix"/>
<feColorMatrix in="SourceAlpha" type="matrix" values="0 0 0 0 0 0 0 0 0 0 0 0 0 0 0 0 0 0 127 0" result="hardAlpha"/>
<feOffset dy="4"/>
<feGaussianBlur stdDeviation="2"/>
<feComposite in2="hardAlpha" operator="out"/>
<feColorMatrix type="matrix" values="0 0 0 0 0 0 0 0 0 0 0 0 0 0 0 0 0 0 0.25 0"/>
<feBlend mode="normal" in2="BackgroundImageFix" result="effect1_dropShadow_1690_250"/>
<feBlend mode="normal" in="SourceGraphic" in2="effect1_dropShadow_1690_250" result="shape"/>
</filter>
</defs>
</svg>
