<svg width="43" height="41" viewBox="0 0 43 41" fill="none" xmlns="http://www.w3.org/2000/svg">
<g clip-path="url(#clip0_1690_4135)" filter="url(#filter0_d_1690_4135)">
<path d="M34.9312 22.0317C34.0034 24.1064 32.5523 25.9346 30.7048 27.3565C28.8572 28.7784 26.6694 29.7507 24.3327 30.1883C21.9959 30.6259 19.5814 30.5156 17.3002 29.867C15.0189 29.2184 12.9404 28.0512 11.2464 26.4675C9.55242 24.8838 8.29446 22.9318 7.58253 20.7822C6.8706 18.6326 6.72638 16.3507 7.16248 14.1362C7.59857 11.9217 8.6017 9.84191 10.0842 8.07869C11.5666 6.31547 13.4833 4.92249 15.6666 4.02155M36.0833 16.6672C36.0833 14.8563 35.7061 13.063 34.9732 11.3899C34.2403 9.71681 33.1661 8.19658 31.8119 6.91603C30.4577 5.63549 28.8501 4.6197 27.0807 3.92668C25.3114 3.23365 23.415 2.87695 21.4999 2.87695V16.6672H36.0833Z" stroke="#1E1E1E" stroke-width="4" stroke-linecap="round" stroke-linejoin="round"/>
</g>
<defs>
<filter id="filter0_d_1690_4135" x="0" y="0.119141" width="43" height="41.0967" filterUnits="userSpaceOnUse" color-interpolation-filters="sRGB">
<feFlood flood-opacity="0" result="BackgroundImageFix"/>
<feColorMatrix in="SourceAlpha" type="matrix" values="0 0 0 0 0 0 0 0 0 0 0 0 0 0 0 0 0 0 127 0" result="hardAlpha"/>
<feOffset dy="4"/>
<feGaussianBlur stdDeviation="2"/>
<feComposite in2="hardAlpha" operator="out"/>
<feColorMatrix type="matrix" values="0 0 0 0 0 0 0 0 0 0 0 0 0 0 0 0 0 0 0.25 0"/>
<feBlend mode="normal" in2="BackgroundImageFix" result="effect1_dropShadow_1690_4135"/>
<feBlend mode="normal" in="SourceGraphic" in2="effect1_dropShadow_1690_4135" result="shape"/>
</filter>
<clipPath id="clip0_1690_4135">
<rect width="35" height="33.0967" fill="white" transform="translate(4 0.119141)"/>
</clipPath>
</defs>
</svg>
