<svg width="38" height="39" viewBox="0 0 38 39" fill="none" xmlns="http://www.w3.org/2000/svg">
<g filter="url(#filter0_d_1690_5063)">
<path d="M24.1447 22.9625L26.1711 21.0375L20.8158 15.95V9.625H17.9211V17.05L24.1447 22.9625ZM19.3684 30.25C17.3662 30.25 15.4846 29.8891 13.7237 29.1672C11.9627 28.4453 10.4309 27.4656 9.12829 26.2281C7.82566 24.9906 6.79441 23.5354 6.03454 21.8625C5.27467 20.1896 4.89474 18.4021 4.89474 16.5C4.89474 14.5979 5.27467 12.8104 6.03454 11.1375C6.79441 9.46458 7.82566 8.00938 9.12829 6.77187C10.4309 5.53437 11.9627 4.55469 13.7237 3.83281C15.4846 3.11094 17.3662 2.75 19.3684 2.75C21.3706 2.75 23.2522 3.11094 25.0132 3.83281C26.7741 4.55469 28.3059 5.53437 29.6086 6.77187C30.9112 8.00938 31.9424 9.46458 32.7023 11.1375C33.4622 12.8104 33.8421 14.5979 33.8421 16.5C33.8421 18.4021 33.4622 20.1896 32.7023 21.8625C31.9424 23.5354 30.9112 24.9906 29.6086 26.2281C28.3059 27.4656 26.7741 28.4453 25.0132 29.1672C23.2522 29.8891 21.3706 30.25 19.3684 30.25ZM19.3684 27.5C22.5768 27.5 25.3087 26.4286 27.5641 24.2859C29.8196 22.1432 30.9474 19.5479 30.9474 16.5C30.9474 13.4521 29.8196 10.8568 27.5641 8.71406C25.3087 6.57135 22.5768 5.5 19.3684 5.5C16.1601 5.5 13.4282 6.57135 11.1727 8.71406C8.91722 10.8568 7.78947 13.4521 7.78947 16.5C7.78947 19.5479 8.91722 22.1432 11.1727 24.2859C13.4282 26.4286 16.1601 27.5 19.3684 27.5Z" fill="#1D1B20"/>
</g>
<defs>
<filter id="filter0_d_1690_5063" x="-2" y="0" width="42.7368" height="41" filterUnits="userSpaceOnUse" color-interpolation-filters="sRGB">
<feFlood flood-opacity="0" result="BackgroundImageFix"/>
<feColorMatrix in="SourceAlpha" type="matrix" values="0 0 0 0 0 0 0 0 0 0 0 0 0 0 0 0 0 0 127 0" result="hardAlpha"/>
<feOffset dy="4"/>
<feGaussianBlur stdDeviation="2"/>
<feComposite in2="hardAlpha" operator="out"/>
<feColorMatrix type="matrix" values="0 0 0 0 0 0 0 0 0 0 0 0 0 0 0 0 0 0 0.25 0"/>
<feBlend mode="normal" in2="BackgroundImageFix" result="effect1_dropShadow_1690_5063"/>
<feBlend mode="normal" in="SourceGraphic" in2="effect1_dropShadow_1690_5063" result="shape"/>
</filter>
</defs>
</svg>
