<svg width="38" height="40" viewBox="0 0 38 40" fill="none" xmlns="http://www.w3.org/2000/svg">
<g filter="url(#filter0_d_1690_436)">
<path d="M24.1447 23.7396L26.171 21.8033L20.8158 16.686V10.324H17.921V17.7925L24.1447 23.7396ZM19.3684 31.0698C17.3662 31.0698 15.4846 30.7068 13.7237 29.9807C11.9627 29.2546 10.4309 28.2691 9.12828 27.0244C7.82565 25.7796 6.7944 24.3159 6.03453 22.6332C5.27466 20.9505 4.89473 19.1525 4.89473 17.2393C4.89473 15.326 5.27466 13.5281 6.03453 11.8453C6.7944 10.1626 7.82565 8.69888 9.12828 7.45413C10.4309 6.20938 11.9627 5.22395 13.7237 4.49785C15.4846 3.77174 17.3662 3.40869 19.3684 3.40869C21.3706 3.40869 23.2522 3.77174 25.0132 4.49785C26.7741 5.22395 28.3059 6.20938 29.6085 7.45413C30.9112 8.69888 31.9424 10.1626 32.7023 11.8453C33.4622 13.5281 33.8421 15.326 33.8421 17.2393C33.8421 19.1525 33.4622 20.9505 32.7023 22.6332C31.9424 24.3159 30.9112 25.7796 29.6085 27.0244C28.3059 28.2691 26.7741 29.2546 25.0132 29.9807C23.2522 30.7068 21.3706 31.0698 19.3684 31.0698ZM19.3684 28.3037C22.5767 28.3037 25.3087 27.2261 27.5641 25.0708C29.8196 22.9156 30.9474 20.305 30.9474 17.2393C30.9474 14.1735 29.8196 11.563 27.5641 9.4077C25.3087 7.25244 22.5767 6.1748 19.3684 6.1748C16.1601 6.1748 13.4282 7.25244 11.1727 9.4077C8.91721 11.563 7.78947 14.1735 7.78947 17.2393C7.78947 20.305 8.91721 22.9156 11.1727 25.0708C13.4282 27.2261 16.1601 28.3037 19.3684 28.3037Z" fill="#1D1B20"/>
</g>
<defs>
<filter id="filter0_d_1690_436" x="-2" y="0.642578" width="42.7368" height="41.1934" filterUnits="userSpaceOnUse" color-interpolation-filters="sRGB">
<feFlood flood-opacity="0" result="BackgroundImageFix"/>
<feColorMatrix in="SourceAlpha" type="matrix" values="0 0 0 0 0 0 0 0 0 0 0 0 0 0 0 0 0 0 127 0" result="hardAlpha"/>
<feOffset dy="4"/>
<feGaussianBlur stdDeviation="2"/>
<feComposite in2="hardAlpha" operator="out"/>
<feColorMatrix type="matrix" values="0 0 0 0 0 0 0 0 0 0 0 0 0 0 0 0 0 0 0.25 0"/>
<feBlend mode="normal" in2="BackgroundImageFix" result="effect1_dropShadow_1690_436"/>
<feBlend mode="normal" in="SourceGraphic" in2="effect1_dropShadow_1690_436" result="shape"/>
</filter>
</defs>
</svg>
