<svg width="38" height="40" viewBox="0 0 38 40" fill="none" xmlns="http://www.w3.org/2000/svg">
<g filter="url(#filter0_d_1690_316)">
<path d="M24.1445 23.7396L26.1708 21.8033L20.8156 16.686V10.324H17.9208V17.7925L24.1445 23.7396ZM19.3682 31.0698C17.366 31.0698 15.4844 30.7068 13.7235 29.9807C11.9625 29.2546 10.4307 28.2691 9.12808 27.0244C7.82545 25.7796 6.7942 24.3159 6.03433 22.6332C5.27447 20.9505 4.89453 19.1525 4.89453 17.2393C4.89453 15.326 5.27447 13.5281 6.03433 11.8453C6.7942 10.1626 7.82545 8.69888 9.12808 7.45413C10.4307 6.20938 11.9625 5.22395 13.7235 4.49785C15.4844 3.77174 17.366 3.40869 19.3682 3.40869C21.3704 3.40869 23.252 3.77174 25.013 4.49785C26.7739 5.22395 28.3057 6.20938 29.6083 7.45413C30.911 8.69888 31.9422 10.1626 32.7021 11.8453C33.462 13.5281 33.8419 15.326 33.8419 17.2393C33.8419 19.1525 33.462 20.9505 32.7021 22.6332C31.9422 24.3159 30.911 25.7796 29.6083 27.0244C28.3057 28.2691 26.7739 29.2546 25.013 29.9807C23.252 30.7068 21.3704 31.0698 19.3682 31.0698ZM19.3682 28.3037C22.5765 28.3037 25.3085 27.2261 27.5639 25.0708C29.8194 22.9156 30.9472 20.305 30.9472 17.2393C30.9472 14.1735 29.8194 11.563 27.5639 9.4077C25.3085 7.25244 22.5765 6.1748 19.3682 6.1748C16.1599 6.1748 13.428 7.25244 11.1725 9.4077C8.91701 11.563 7.78927 14.1735 7.78927 17.2393C7.78927 20.305 8.91701 22.9156 11.1725 25.0708C13.428 27.2261 16.1599 28.3037 19.3682 28.3037Z" fill="#1D1B20"/>
</g>
<defs>
<filter id="filter0_d_1690_316" x="-2" y="0.642578" width="42.7368" height="41.1934" filterUnits="userSpaceOnUse" color-interpolation-filters="sRGB">
<feFlood flood-opacity="0" result="BackgroundImageFix"/>
<feColorMatrix in="SourceAlpha" type="matrix" values="0 0 0 0 0 0 0 0 0 0 0 0 0 0 0 0 0 0 127 0" result="hardAlpha"/>
<feOffset dy="4"/>
<feGaussianBlur stdDeviation="2"/>
<feComposite in2="hardAlpha" operator="out"/>
<feColorMatrix type="matrix" values="0 0 0 0 0 0 0 0 0 0 0 0 0 0 0 0 0 0 0.25 0"/>
<feBlend mode="normal" in2="BackgroundImageFix" result="effect1_dropShadow_1690_316"/>
<feBlend mode="normal" in="SourceGraphic" in2="effect1_dropShadow_1690_316" result="shape"/>
</filter>
</defs>
</svg>
