<svg width="38" height="39" viewBox="0 0 38 39" fill="none" xmlns="http://www.w3.org/2000/svg">
<g filter="url(#filter0_d_1690_4201)">
<path d="M24.1445 23.3508L26.1708 21.4202L20.8156 16.3178V9.97424H17.9208V17.421L24.1445 23.3508ZM19.3682 30.6597C17.366 30.6597 15.4844 30.2977 13.7235 29.5737C11.9625 28.8497 10.4307 27.8671 9.12808 26.626C7.82545 25.3849 6.7942 23.9254 6.03433 22.2476C5.27447 20.5698 4.89453 18.777 4.89453 16.8694C4.89453 14.9617 5.27447 13.169 6.03433 11.4912C6.7942 9.81336 7.82545 8.35388 9.12808 7.11276C10.4307 5.87163 11.9625 4.88908 13.7235 4.16509C15.4844 3.4411 17.366 3.0791 19.3682 3.0791C21.3704 3.0791 23.252 3.4411 25.013 4.16509C26.7739 4.88908 28.3057 5.87163 29.6083 7.11276C30.911 8.35388 31.9422 9.81336 32.7021 11.4912C33.462 13.169 33.8419 14.9617 33.8419 16.8694C33.8419 18.777 33.462 20.5698 32.7021 22.2476C31.9422 23.9254 30.911 25.3849 29.6083 26.626C28.3057 27.8671 26.7739 28.8497 25.013 29.5737C23.252 30.2977 21.3704 30.6597 19.3682 30.6597ZM19.3682 27.9016C22.5765 27.9016 25.3085 26.8271 27.5639 24.6781C29.8194 22.5291 30.9472 19.9262 30.9472 16.8694C30.9472 13.8125 29.8194 11.2096 27.5639 9.06064C25.3085 6.91165 22.5765 5.83716 19.3682 5.83716C16.1599 5.83716 13.428 6.91165 11.1725 9.06064C8.91701 11.2096 7.78927 13.8125 7.78927 16.8694C7.78927 19.9262 8.91701 22.5291 11.1725 24.6781C13.428 26.8271 16.1599 27.9016 19.3682 27.9016Z" fill="#1D1B20"/>
</g>
<defs>
<filter id="filter0_d_1690_4201" x="-2" y="0.321289" width="42.7368" height="41.0967" filterUnits="userSpaceOnUse" color-interpolation-filters="sRGB">
<feFlood flood-opacity="0" result="BackgroundImageFix"/>
<feColorMatrix in="SourceAlpha" type="matrix" values="0 0 0 0 0 0 0 0 0 0 0 0 0 0 0 0 0 0 127 0" result="hardAlpha"/>
<feOffset dy="4"/>
<feGaussianBlur stdDeviation="2"/>
<feComposite in2="hardAlpha" operator="out"/>
<feColorMatrix type="matrix" values="0 0 0 0 0 0 0 0 0 0 0 0 0 0 0 0 0 0 0.25 0"/>
<feBlend mode="normal" in2="BackgroundImageFix" result="effect1_dropShadow_1690_4201"/>
<feBlend mode="normal" in="SourceGraphic" in2="effect1_dropShadow_1690_4201" result="shape"/>
</filter>
</defs>
</svg>
