<svg width="38" height="39" viewBox="0 0 38 39" fill="none" xmlns="http://www.w3.org/2000/svg">
<g filter="url(#filter0_d_1336_4442)">
<path d="M24.1445 22.9625L26.1708 21.0375L20.8156 15.95V9.625H17.9208V17.05L24.1445 22.9625ZM19.3682 30.25C17.366 30.25 15.4844 29.8891 13.7235 29.1672C11.9625 28.4453 10.4307 27.4656 9.12808 26.2281C7.82545 24.9906 6.7942 23.5354 6.03433 21.8625C5.27447 20.1896 4.89453 18.4021 4.89453 16.5C4.89453 14.5979 5.27447 12.8104 6.03433 11.1375C6.7942 9.46458 7.82545 8.00938 9.12808 6.77187C10.4307 5.53437 11.9625 4.55469 13.7235 3.83281C15.4844 3.11094 17.366 2.75 19.3682 2.75C21.3704 2.75 23.252 3.11094 25.013 3.83281C26.7739 4.55469 28.3057 5.53437 29.6083 6.77187C30.911 8.00938 31.9422 9.46458 32.7021 11.1375C33.462 12.8104 33.8419 14.5979 33.8419 16.5C33.8419 18.4021 33.462 20.1896 32.7021 21.8625C31.9422 23.5354 30.911 24.9906 29.6083 26.2281C28.3057 27.4656 26.7739 28.4453 25.013 29.1672C23.252 29.8891 21.3704 30.25 19.3682 30.25ZM19.3682 27.5C22.5765 27.5 25.3085 26.4286 27.5639 24.2859C29.8194 22.1432 30.9472 19.5479 30.9472 16.5C30.9472 13.4521 29.8194 10.8568 27.5639 8.71406C25.3085 6.57135 22.5765 5.5 19.3682 5.5C16.1599 5.5 13.428 6.57135 11.1725 8.71406C8.91701 10.8568 7.78927 13.4521 7.78927 16.5C7.78927 19.5479 8.91701 22.1432 11.1725 24.2859C13.428 26.4286 16.1599 27.5 19.3682 27.5Z" fill="#1D1B20"/>
</g>
<defs>
<filter id="filter0_d_1336_4442" x="-2" y="0" width="42.7368" height="41" filterUnits="userSpaceOnUse" color-interpolation-filters="sRGB">
<feFlood flood-opacity="0" result="BackgroundImageFix"/>
<feColorMatrix in="SourceAlpha" type="matrix" values="0 0 0 0 0 0 0 0 0 0 0 0 0 0 0 0 0 0 127 0" result="hardAlpha"/>
<feOffset dy="4"/>
<feGaussianBlur stdDeviation="2"/>
<feComposite in2="hardAlpha" operator="out"/>
<feColorMatrix type="matrix" values="0 0 0 0 0 0 0 0 0 0 0 0 0 0 0 0 0 0 0.25 0"/>
<feBlend mode="normal" in2="BackgroundImageFix" result="effect1_dropShadow_1336_4442"/>
<feBlend mode="normal" in="SourceGraphic" in2="effect1_dropShadow_1336_4442" result="shape"/>
</filter>
</defs>
</svg>
