<svg width="38" height="39" viewBox="0 0 38 39" fill="none" xmlns="http://www.w3.org/2000/svg">
<g filter="url(#filter0_d_1337_4693)">
<path d="M24.1448 22.9625L26.1711 21.0375L20.8158 15.95V9.625H17.9211V17.05L24.1448 22.9625ZM19.3685 30.25C17.3663 30.25 15.4847 29.8891 13.7237 29.1672C11.9628 28.4453 10.431 27.4656 9.12833 26.2281C7.8257 24.9906 6.79445 23.5354 6.03458 21.8625C5.27471 20.1896 4.89478 18.4021 4.89478 16.5C4.89478 14.5979 5.27471 12.8104 6.03458 11.1375C6.79445 9.46458 7.8257 8.00938 9.12833 6.77187C10.431 5.53437 11.9628 4.55469 13.7237 3.83281C15.4847 3.11094 17.3663 2.75 19.3685 2.75C21.3707 2.75 23.2522 3.11094 25.0132 3.83281C26.7742 4.55469 28.306 5.53437 29.6086 6.77187C30.9112 8.00938 31.9425 9.46458 32.7023 11.1375C33.4622 12.8104 33.8421 14.5979 33.8421 16.5C33.8421 18.4021 33.4622 20.1896 32.7023 21.8625C31.9425 23.5354 30.9112 24.9906 29.6086 26.2281C28.306 27.4656 26.7742 28.4453 25.0132 29.1672C23.2522 29.8891 21.3707 30.25 19.3685 30.25ZM19.3685 27.5C22.5768 27.5 25.3087 26.4286 27.5642 24.2859C29.8197 22.1432 30.9474 19.5479 30.9474 16.5C30.9474 13.4521 29.8197 10.8568 27.5642 8.71406C25.3087 6.57135 22.5768 5.5 19.3685 5.5C16.1601 5.5 13.4282 6.57135 11.1727 8.71406C8.91725 10.8568 7.78951 13.4521 7.78951 16.5C7.78951 19.5479 8.91725 22.1432 11.1727 24.2859C13.4282 26.4286 16.1601 27.5 19.3685 27.5Z" fill="#1D1B20"/>
</g>
<defs>
<filter id="filter0_d_1337_4693" x="-2" y="0" width="42.7368" height="41" filterUnits="userSpaceOnUse" color-interpolation-filters="sRGB">
<feFlood flood-opacity="0" result="BackgroundImageFix"/>
<feColorMatrix in="SourceAlpha" type="matrix" values="0 0 0 0 0 0 0 0 0 0 0 0 0 0 0 0 0 0 127 0" result="hardAlpha"/>
<feOffset dy="4"/>
<feGaussianBlur stdDeviation="2"/>
<feComposite in2="hardAlpha" operator="out"/>
<feColorMatrix type="matrix" values="0 0 0 0 0 0 0 0 0 0 0 0 0 0 0 0 0 0 0.25 0"/>
<feBlend mode="normal" in2="BackgroundImageFix" result="effect1_dropShadow_1337_4693"/>
<feBlend mode="normal" in="SourceGraphic" in2="effect1_dropShadow_1337_4693" result="shape"/>
</filter>
</defs>
</svg>
