<svg width="38" height="40" viewBox="0 0 38 40" fill="none" xmlns="http://www.w3.org/2000/svg">
<g filter="url(#filter0_d_1690_1644)">
<path d="M24.1448 24.0536L26.1711 22.108L20.8158 16.9658V10.5729H17.9211V18.0776L24.1448 24.0536ZM19.3685 31.4194C17.3663 31.4194 15.4847 31.0546 13.7237 30.325C11.9628 29.5954 10.431 28.6051 9.12833 27.3544C7.8257 26.1036 6.79445 24.6327 6.03458 22.9418C5.27471 21.2509 4.89478 19.4442 4.89478 17.5217C4.89478 15.5992 5.27471 13.7925 6.03458 12.1016C6.79445 10.4107 7.8257 8.9399 9.12833 7.6891C10.431 6.43831 11.9628 5.4481 13.7237 4.71847C15.4847 3.98884 17.3663 3.62402 19.3685 3.62402C21.3707 3.62402 23.2522 3.98884 25.0132 4.71847C26.7742 5.4481 28.306 6.43831 29.6086 7.6891C30.9112 8.9399 31.9425 10.4107 32.7023 12.1016C33.4622 13.7925 33.8421 15.5992 33.8421 17.5217C33.8421 19.4442 33.4622 21.2509 32.7023 22.9418C31.9425 24.6327 30.9112 26.1036 29.6086 27.3544C28.306 28.6051 26.7742 29.5954 25.0132 30.325C23.2522 31.0546 21.3707 31.4194 19.3685 31.4194ZM19.3685 28.6399C22.5768 28.6399 25.3087 27.557 27.5642 25.3913C29.8197 23.2256 30.9474 20.6024 30.9474 17.5217C30.9474 14.4411 29.8197 11.8179 27.5642 9.65215C25.3087 7.48643 22.5768 6.40356 19.3685 6.40356C16.1601 6.40356 13.4282 7.48643 11.1727 9.65215C8.91725 11.8179 7.78951 14.4411 7.78951 17.5217C7.78951 20.6024 8.91725 23.2256 11.1727 25.3913C13.4282 27.557 16.1601 28.6399 19.3685 28.6399Z" fill="#1D1B20"/>
</g>
<defs>
<filter id="filter0_d_1690_1644" x="-2" y="0.844727" width="42.7368" height="41.3545" filterUnits="userSpaceOnUse" color-interpolation-filters="sRGB">
<feFlood flood-opacity="0" result="BackgroundImageFix"/>
<feColorMatrix in="SourceAlpha" type="matrix" values="0 0 0 0 0 0 0 0 0 0 0 0 0 0 0 0 0 0 127 0" result="hardAlpha"/>
<feOffset dy="4"/>
<feGaussianBlur stdDeviation="2"/>
<feComposite in2="hardAlpha" operator="out"/>
<feColorMatrix type="matrix" values="0 0 0 0 0 0 0 0 0 0 0 0 0 0 0 0 0 0 0.25 0"/>
<feBlend mode="normal" in2="BackgroundImageFix" result="effect1_dropShadow_1690_1644"/>
<feBlend mode="normal" in="SourceGraphic" in2="effect1_dropShadow_1690_1644" result="shape"/>
</filter>
</defs>
</svg>
